<svg width="104" height="62" viewBox="0 0 104 62" fill="none" xmlns="http://www.w3.org/2000/svg">
<path d="M89.5847 35.7149C85.9646 35.7299 82.8184 36.4226 80.1839 37.4466C79.2172 35.9257 78.2506 34.5704 78.0801 33.5766C77.8905 32.4171 77.6631 31.7093 77.8905 30.3239C78.118 28.9385 79.1414 26.9659 79.1225 26.8153C79.1035 26.6647 78.895 25.957 76.8102 25.9419C74.7253 25.9268 72.9248 26.2581 72.7163 26.6948C72.5078 27.1315 72.1098 28.1254 71.8444 29.1494C71.4843 30.6552 67.6747 36.0311 65.4951 38.847C64.7938 37.7478 64.1873 36.784 64.0547 36.016C63.8651 34.8565 63.6377 34.1488 63.8651 32.7634C64.0926 31.378 65.116 29.4054 65.0971 29.2548C65.0781 29.1042 64.8696 28.3964 62.7848 28.3814C60.6999 28.3663 58.8994 28.6976 58.6909 29.1343C58.4824 29.571 58.255 30.595 57.819 31.5888C57.3831 32.5827 52.3226 41.5576 50.9959 43.8766C50.3136 45.0662 49.726 46.0149 49.309 46.6624C49.309 46.6624 49.2901 46.7076 49.2332 46.7829C48.8731 47.34 48.6646 47.6412 48.6646 47.6412C48.6646 47.6412 48.6646 47.6412 48.6646 47.6562C48.3803 48.0628 48.0771 48.4393 47.9254 48.4393C47.8117 48.4393 47.6032 47.3551 47.9634 45.8793C48.7215 42.7622 50.522 37.9134 50.5031 37.7478C50.5031 37.6574 50.8442 36.8141 49.328 36.3774C47.8496 35.9407 47.3189 36.6635 47.1863 36.6635C47.0536 36.6635 46.9588 36.9195 46.9588 36.9195C46.9588 36.9195 48.6078 31.4684 43.8126 31.4684C40.818 31.4684 36.6862 34.0735 34.6392 36.4226C33.3504 36.9798 30.6022 38.1694 27.6644 39.4494C26.5462 39.9463 25.39 40.4432 24.3097 40.91C24.2339 40.8498 24.1581 40.7745 24.0823 40.7143C18.2826 35.7902 7.55505 32.3116 8.00993 25.701C8.18051 23.2916 9.22293 16.967 28.6121 9.28721C44.5707 3.03794 57.2694 4.76966 59.468 8.60958C62.6142 14.0909 52.6638 24.2704 36.1744 25.7461C29.882 26.3033 26.5841 24.3758 25.7502 23.653C24.8783 22.9001 24.7456 22.8549 24.4234 23.0055C23.8927 23.2314 24.2339 23.909 24.4234 24.3005C24.9162 25.3245 26.9442 27.1315 30.3747 28.02C33.4073 28.803 40.7801 29.2397 49.7071 26.4991C59.6954 23.4271 67.5042 14.889 65.2108 7.73619C62.9175 0.477993 47.7549 -1.91631 33.4073 2.13443C24.8783 4.54379 15.6291 8.33853 8.97654 13.2777C1.07304 19.1505 -0.177871 24.2554 0.333866 26.3937C2.17233 33.9831 15.3448 38.9223 20.6138 42.5815C20.3485 42.702 20.1021 42.8074 19.8936 42.8978C17.2591 43.9368 7.21389 48.108 4.71206 52.5201C1.86908 57.5196 5.16694 61.1035 7.34656 61.5853C14.1129 63.0761 21.0687 60.3957 24.8025 55.9685C28.5363 51.5413 28.0814 45.789 26.3567 43.1538C26.3377 43.1236 26.3188 43.0935 26.2808 43.0634C26.9632 42.7472 27.6644 42.4159 28.3468 42.0997C29.6924 41.4672 31.0192 40.8799 32.1564 40.3981C31.5119 41.7985 31.0381 43.47 30.8107 45.8793C30.5264 48.7103 31.9858 52.3846 33.9001 53.8302C34.7529 54.4627 35.7575 54.4777 36.4019 54.4777C38.6384 54.4777 39.6429 53.002 40.7611 51.2552C42.1258 49.1169 43.3577 46.6323 43.3577 46.6323C43.3577 46.6323 41.8225 53.3484 45.9922 53.3484C47.5085 53.3484 49.0437 51.7823 49.726 50.9842V50.9992C49.726 50.9992 49.7639 50.9541 49.8397 50.8486C49.9914 50.6529 50.0861 50.5324 50.0861 50.5324V50.5023C50.6926 49.659 52.0573 47.7466 54.0853 44.5693C56.7008 40.4733 59.2216 35.3535 59.2216 35.3535C59.2216 35.3535 59.449 36.6033 60.2261 38.6814C60.681 39.9011 61.6286 41.2413 62.3868 42.5364C61.7803 43.214 61.4012 43.5905 61.4012 43.5905C61.4012 43.5905 61.4012 43.5905 61.4202 43.6055C60.9274 44.1175 60.3967 44.6747 59.8091 45.2168C57.7432 47.1744 55.2793 49.4181 54.9382 50.0656C54.5401 50.8336 54.6349 51.3908 55.393 51.8425C55.9427 52.1738 56.9282 52.219 57.9328 52.1738C59.7902 52.0684 61.098 51.707 61.7424 51.4811C62.7469 51.195 63.922 50.7583 65.0213 50.1108C67.0493 48.9212 68.2812 47.2195 68.1675 44.9758C68.1106 43.741 67.5989 42.5062 66.9735 41.3467C67.163 41.1359 67.3336 40.9251 67.5231 40.7143C70.7262 36.9948 73.2091 32.914 73.2091 32.914C73.2091 32.914 73.4365 34.1638 74.2136 36.2419C74.5927 37.296 75.3697 38.4405 76.0521 39.5548C73.0385 41.4973 71.1811 43.7561 70.5177 45.2318C69.3237 47.9725 70.2524 49.2073 72.015 49.4934C72.8111 49.6289 73.9482 49.3277 74.7822 49.0416C75.8436 48.7706 77.0945 48.3038 78.2885 47.6111C80.3165 46.4214 82.2687 44.765 82.155 42.5213C82.0981 41.4973 81.757 40.4884 81.2832 39.5096C83.8418 38.6663 87.1397 38.1995 91.3473 38.591C100.369 39.4343 102.151 43.9067 101.81 45.789C101.468 47.6713 99.573 48.6953 98.9476 49.0115C98.3221 49.3277 98.1136 49.4331 98.1705 49.659C98.2463 49.9903 98.5496 49.9753 99.0802 49.915C99.8194 49.8096 103.819 48.3941 103.989 44.9307C104.273 40.5035 98.9665 35.6697 89.5847 35.7149ZM19.9884 54.3573C16.9938 56.9473 12.8241 57.9261 11.0235 57.0979C9.09026 56.2095 9.84839 52.3846 13.5253 49.644C15.7618 47.9725 18.6427 46.4215 20.557 45.4728C20.9929 45.2619 21.6373 44.9608 22.4144 44.5843C22.5471 44.5241 22.6229 44.494 22.6229 44.494C22.7745 44.4187 22.9261 44.3434 23.0778 44.2681C24.4234 48.1833 23.1346 51.6317 19.9884 54.3573ZM41.7846 42.5815C40.7422 44.5994 38.5625 49.7644 37.2358 49.4783C36.0986 49.2374 35.3974 45.3222 37.0084 41.4522C37.8234 39.5096 39.5481 37.1906 40.5526 36.2871C42.1826 34.8415 43.9832 34.3596 44.4191 34.9469C44.9687 35.7149 42.429 41.3166 41.7846 42.5815ZM59.7712 49.4181C59.3353 49.5988 58.9183 49.7193 58.7288 49.6289C58.5961 49.5687 58.9183 49.3277 58.9183 49.3277C58.9183 49.3277 61.1738 47.4003 62.0646 46.5269C62.5763 46.0149 63.1828 45.4125 63.8272 44.7349V44.9307C63.8272 47.2346 61.0221 48.7856 59.7712 49.4181ZM73.645 46.9033C73.3228 46.7226 73.3797 46.1203 74.46 44.238C74.877 43.5001 75.8625 42.2653 77.5494 41.0757C77.7389 41.5576 77.8716 42.0244 77.8526 42.4611C77.8337 45.3674 75.2181 46.4516 73.645 46.9033Z" fill="#CD6799"/>
</svg>
