<svg width="79" height="26" viewBox="0 0 79 26" fill="none" xmlns="http://www.w3.org/2000/svg">
<path d="M9.712 0.568C10.8 0.568 11.872 0.712 12.928 1C14.016 1.256 15.008 1.672 15.904 2.248L14.512 5.32C13.808 4.744 13.024 4.312 12.16 4.024C11.296 3.736 10.448 3.592 9.616 3.592C8.432 3.592 7.392 3.864 6.496 4.408C5.632 4.952 5.2 5.768 5.2 6.856C5.2 8.04 5.584 8.92 6.352 9.496C7.152 10.072 8.096 10.616 9.184 11.128C10.24 11.608 11.296 12.152 12.352 12.76C13.44 13.336 14.352 14.088 15.088 15.016C15.824 15.912 16.192 17.128 16.192 18.664C16.192 20.264 15.792 21.592 14.992 22.648C14.224 23.672 13.2 24.424 11.92 24.904C10.672 25.384 9.312 25.624 7.84 25.624C6.56 25.624 5.28 25.448 4 25.096C2.72 24.744 1.536 24.248 0.448 23.608L2.128 20.68C2.896 21.256 3.76 21.72 4.72 22.072C5.68 22.424 6.608 22.6 7.504 22.6C8.72 22.6 9.776 22.312 10.672 21.736C11.6 21.16 12.064 20.296 12.064 19.144C12.064 18.344 11.808 17.688 11.296 17.176C10.816 16.632 10.192 16.152 9.424 15.736C8.656 15.32 7.856 14.92 7.024 14.536C6.064 14.056 5.12 13.544 4.192 13C3.296 12.424 2.56 11.704 1.984 10.84C1.408 9.976 1.12 8.872 1.12 7.528C1.12 5.992 1.52 4.712 2.32 3.688C3.152 2.664 4.224 1.896 5.536 1.384C6.848 0.84 8.24 0.568 9.712 0.568ZM31.777 0.568C32.993 0.568 34.209 0.776 35.425 1.192C36.673 1.576 37.889 2.184 39.073 3.016L36.913 5.8C36.017 5.064 35.137 4.536 34.273 4.216C33.409 3.864 32.577 3.688 31.777 3.688C30.497 3.688 29.345 4.072 28.321 4.84C27.297 5.608 26.481 6.696 25.873 8.104C25.297 9.512 25.009 11.16 25.009 13.048C25.009 16.056 25.681 18.36 27.025 19.96C28.401 21.56 30.129 22.36 32.209 22.36C33.137 22.36 34.033 22.216 34.897 21.928C35.793 21.64 36.721 21.224 37.681 20.68L38.977 23.224C37.697 24.024 36.465 24.616 35.281 25C34.097 25.416 32.769 25.624 31.297 25.624C29.249 25.624 27.425 25.112 25.825 24.088C24.257 23.032 23.009 21.544 22.081 19.624C21.185 17.704 20.737 15.448 20.737 12.856C20.737 10.36 21.233 8.2 22.225 6.376C23.249 4.52 24.593 3.096 26.257 2.104C27.953 1.08 29.793 0.568 31.777 0.568ZM51.9464 0.568C53.0344 0.568 54.1064 0.712 55.1624 1C56.2504 1.256 57.2424 1.672 58.1384 2.248L56.7464 5.32C56.0424 4.744 55.2584 4.312 54.3944 4.024C53.5304 3.736 52.6824 3.592 51.8504 3.592C50.6664 3.592 49.6264 3.864 48.7304 4.408C47.8664 4.952 47.4344 5.768 47.4344 6.856C47.4344 8.04 47.8184 8.92 48.5864 9.496C49.3864 10.072 50.3304 10.616 51.4184 11.128C52.4744 11.608 53.5304 12.152 54.5864 12.76C55.6744 13.336 56.5864 14.088 57.3224 15.016C58.0584 15.912 58.4264 17.128 58.4264 18.664C58.4264 20.264 58.0264 21.592 57.2264 22.648C56.4584 23.672 55.4344 24.424 54.1544 24.904C52.9064 25.384 51.5464 25.624 50.0744 25.624C48.7944 25.624 47.5144 25.448 46.2344 25.096C44.9544 24.744 43.7704 24.248 42.6824 23.608L44.3624 20.68C45.1304 21.256 45.9944 21.72 46.9544 22.072C47.9144 22.424 48.8424 22.6 49.7384 22.6C50.9544 22.6 52.0104 22.312 52.9064 21.736C53.8344 21.16 54.2984 20.296 54.2984 19.144C54.2984 18.344 54.0424 17.688 53.5304 17.176C53.0504 16.632 52.4264 16.152 51.6584 15.736C50.8904 15.32 50.0904 14.92 49.2584 14.536C48.2984 14.056 47.3544 13.544 46.4264 13C45.5304 12.424 44.7944 11.704 44.2184 10.84C43.6424 9.976 43.3544 8.872 43.3544 7.528C43.3544 5.992 43.7544 4.712 44.5544 3.688C45.3864 2.664 46.4584 1.896 47.7704 1.384C49.0824 0.84 50.4744 0.568 51.9464 0.568ZM71.8683 0.568C72.9563 0.568 74.0283 0.712 75.0843 1C76.1723 1.256 77.1643 1.672 78.0603 2.248L76.6683 5.32C75.9643 4.744 75.1803 4.312 74.3163 4.024C73.4523 3.736 72.6043 3.592 71.7723 3.592C70.5883 3.592 69.5483 3.864 68.6523 4.408C67.7883 4.952 67.3563 5.768 67.3563 6.856C67.3563 8.04 67.7403 8.92 68.5083 9.496C69.3083 10.072 70.2523 10.616 71.3403 11.128C72.3963 11.608 73.4523 12.152 74.5083 12.76C75.5963 13.336 76.5083 14.088 77.2443 15.016C77.9803 15.912 78.3483 17.128 78.3483 18.664C78.3483 20.264 77.9483 21.592 77.1483 22.648C76.3803 23.672 75.3563 24.424 74.0763 24.904C72.8283 25.384 71.4683 25.624 69.9963 25.624C68.7163 25.624 67.4363 25.448 66.1562 25.096C64.8763 24.744 63.6923 24.248 62.6043 23.608L64.2843 20.68C65.0523 21.256 65.9163 21.72 66.8763 22.072C67.8363 22.424 68.7643 22.6 69.6603 22.6C70.8763 22.6 71.9323 22.312 72.8282 21.736C73.7563 21.16 74.2203 20.296 74.2203 19.144C74.2203 18.344 73.9643 17.688 73.4523 17.176C72.9723 16.632 72.3483 16.152 71.5803 15.736C70.8123 15.32 70.0123 14.92 69.1803 14.536C68.2203 14.056 67.2763 13.544 66.3483 13C65.4523 12.424 64.7163 11.704 64.1403 10.84C63.5643 9.976 63.2763 8.872 63.2763 7.528C63.2763 5.992 63.6763 4.712 64.4763 3.688C65.3083 2.664 66.3803 1.896 67.6923 1.384C69.0043 0.84 70.3963 0.568 71.8683 0.568Z" fill="#1034D0"/>
<path d="M9.712 0.568C10.8 0.568 11.872 0.712 12.928 1C14.016 1.256 15.008 1.672 15.904 2.248L14.512 5.32C13.808 4.744 13.024 4.312 12.16 4.024C11.296 3.736 10.448 3.592 9.616 3.592C8.432 3.592 7.392 3.864 6.496 4.408C5.632 4.952 5.2 5.768 5.2 6.856C5.2 8.04 5.584 8.92 6.352 9.496C7.152 10.072 8.096 10.616 9.184 11.128C10.24 11.608 11.296 12.152 12.352 12.76C13.44 13.336 14.352 14.088 15.088 15.016C15.824 15.912 16.192 17.128 16.192 18.664C16.192 20.264 15.792 21.592 14.992 22.648C14.224 23.672 13.2 24.424 11.92 24.904C10.672 25.384 9.312 25.624 7.84 25.624C6.56 25.624 5.28 25.448 4 25.096C2.72 24.744 1.536 24.248 0.448 23.608L2.128 20.68C2.896 21.256 3.76 21.72 4.72 22.072C5.68 22.424 6.608 22.6 7.504 22.6C8.72 22.6 9.776 22.312 10.672 21.736C11.6 21.16 12.064 20.296 12.064 19.144C12.064 18.344 11.808 17.688 11.296 17.176C10.816 16.632 10.192 16.152 9.424 15.736C8.656 15.32 7.856 14.92 7.024 14.536C6.064 14.056 5.12 13.544 4.192 13C3.296 12.424 2.56 11.704 1.984 10.84C1.408 9.976 1.12 8.872 1.12 7.528C1.12 5.992 1.52 4.712 2.32 3.688C3.152 2.664 4.224 1.896 5.536 1.384C6.848 0.84 8.24 0.568 9.712 0.568ZM31.777 0.568C32.993 0.568 34.209 0.776 35.425 1.192C36.673 1.576 37.889 2.184 39.073 3.016L36.913 5.8C36.017 5.064 35.137 4.536 34.273 4.216C33.409 3.864 32.577 3.688 31.777 3.688C30.497 3.688 29.345 4.072 28.321 4.84C27.297 5.608 26.481 6.696 25.873 8.104C25.297 9.512 25.009 11.16 25.009 13.048C25.009 16.056 25.681 18.36 27.025 19.96C28.401 21.56 30.129 22.36 32.209 22.36C33.137 22.36 34.033 22.216 34.897 21.928C35.793 21.64 36.721 21.224 37.681 20.68L38.977 23.224C37.697 24.024 36.465 24.616 35.281 25C34.097 25.416 32.769 25.624 31.297 25.624C29.249 25.624 27.425 25.112 25.825 24.088C24.257 23.032 23.009 21.544 22.081 19.624C21.185 17.704 20.737 15.448 20.737 12.856C20.737 10.36 21.233 8.2 22.225 6.376C23.249 4.52 24.593 3.096 26.257 2.104C27.953 1.08 29.793 0.568 31.777 0.568ZM51.9464 0.568C53.0344 0.568 54.1064 0.712 55.1624 1C56.2504 1.256 57.2424 1.672 58.1384 2.248L56.7464 5.32C56.0424 4.744 55.2584 4.312 54.3944 4.024C53.5304 3.736 52.6824 3.592 51.8504 3.592C50.6664 3.592 49.6264 3.864 48.7304 4.408C47.8664 4.952 47.4344 5.768 47.4344 6.856C47.4344 8.04 47.8184 8.92 48.5864 9.496C49.3864 10.072 50.3304 10.616 51.4184 11.128C52.4744 11.608 53.5304 12.152 54.5864 12.76C55.6744 13.336 56.5864 14.088 57.3224 15.016C58.0584 15.912 58.4264 17.128 58.4264 18.664C58.4264 20.264 58.0264 21.592 57.2264 22.648C56.4584 23.672 55.4344 24.424 54.1544 24.904C52.9064 25.384 51.5464 25.624 50.0744 25.624C48.7944 25.624 47.5144 25.448 46.2344 25.096C44.9544 24.744 43.7704 24.248 42.6824 23.608L44.3624 20.68C45.1304 21.256 45.9944 21.72 46.9544 22.072C47.9144 22.424 48.8424 22.6 49.7384 22.6C50.9544 22.6 52.0104 22.312 52.9064 21.736C53.8344 21.16 54.2984 20.296 54.2984 19.144C54.2984 18.344 54.0424 17.688 53.5304 17.176C53.0504 16.632 52.4264 16.152 51.6584 15.736C50.8904 15.32 50.0904 14.92 49.2584 14.536C48.2984 14.056 47.3544 13.544 46.4264 13C45.5304 12.424 44.7944 11.704 44.2184 10.84C43.6424 9.976 43.3544 8.872 43.3544 7.528C43.3544 5.992 43.7544 4.712 44.5544 3.688C45.3864 2.664 46.4584 1.896 47.7704 1.384C49.0824 0.84 50.4744 0.568 51.9464 0.568ZM71.8683 0.568C72.9563 0.568 74.0283 0.712 75.0843 1C76.1723 1.256 77.1643 1.672 78.0603 2.248L76.6683 5.32C75.9643 4.744 75.1803 4.312 74.3163 4.024C73.4523 3.736 72.6043 3.592 71.7723 3.592C70.5883 3.592 69.5483 3.864 68.6523 4.408C67.7883 4.952 67.3563 5.768 67.3563 6.856C67.3563 8.04 67.7403 8.92 68.5083 9.496C69.3083 10.072 70.2523 10.616 71.3403 11.128C72.3963 11.608 73.4523 12.152 74.5083 12.76C75.5963 13.336 76.5083 14.088 77.2443 15.016C77.9803 15.912 78.3483 17.128 78.3483 18.664C78.3483 20.264 77.9483 21.592 77.1483 22.648C76.3803 23.672 75.3563 24.424 74.0763 24.904C72.8283 25.384 71.4683 25.624 69.9963 25.624C68.7163 25.624 67.4363 25.448 66.1562 25.096C64.8763 24.744 63.6923 24.248 62.6043 23.608L64.2843 20.68C65.0523 21.256 65.9163 21.72 66.8763 22.072C67.8363 22.424 68.7643 22.6 69.6603 22.6C70.8763 22.6 71.9323 22.312 72.8282 21.736C73.7563 21.16 74.2203 20.296 74.2203 19.144C74.2203 18.344 73.9643 17.688 73.4523 17.176C72.9723 16.632 72.3483 16.152 71.5803 15.736C70.8123 15.32 70.0123 14.92 69.1803 14.536C68.2203 14.056 67.2763 13.544 66.3483 13C65.4523 12.424 64.7163 11.704 64.1403 10.84C63.5643 9.976 63.2763 8.872 63.2763 7.528C63.2763 5.992 63.6763 4.712 64.4763 3.688C65.3083 2.664 66.3803 1.896 67.6923 1.384C69.0043 0.84 70.3963 0.568 71.8683 0.568Z" fill="url(#paint0_linear)"/>
<defs>
<linearGradient id="paint0_linear" x1="53" y1="-22" x2="53" y2="25" gradientUnits="userSpaceOnUse">
<stop stop-color="white" stop-opacity="0.46"/>
<stop offset="1" stop-color="white" stop-opacity="0"/>
</linearGradient>
</defs>
</svg>
